<svg width="27" height="27" viewBox="0 0 27 27" fill="none" xmlns="http://www.w3.org/2000/svg">
<g clip-path="url(#clip0_471_585)">
<path d="M26.0111 10.2026L17.478 1.66838C16.4219 0.615365 14.9914 0.0240479 13.5 0.0240479C12.0086 0.0240479 10.5781 0.615365 9.52201 1.66838L0.988889 10.2026C0.674367 10.5151 0.425005 10.887 0.255256 11.2966C0.0855081 11.7062 -0.0012492 12.1454 1.35894e-05 12.5888V23.6329C1.35894e-05 24.528 0.355593 25.3864 0.988528 26.0194C1.62146 26.6523 2.47991 27.0079 3.37501 27.0079H23.625C24.5201 27.0079 25.3786 26.6523 26.0115 26.0194C26.6444 25.3864 27 24.528 27 23.6329V12.5888C27.0013 12.1454 26.9145 11.7062 26.7448 11.2966C26.575 10.887 26.3257 10.5151 26.0111 10.2026ZM16.875 24.7579H10.125V20.3321C10.125 19.437 10.4806 18.5786 11.1135 17.9456C11.7465 17.3127 12.6049 16.9571 13.5 16.9571C14.3951 16.9571 15.2536 17.3127 15.8865 17.9456C16.5194 18.5786 16.875 19.437 16.875 20.3321V24.7579ZM24.75 23.6329C24.75 23.9312 24.6315 24.2174 24.4205 24.4284C24.2095 24.6394 23.9234 24.7579 23.625 24.7579H19.125V20.3321C19.125 18.8403 18.5324 17.4095 17.4775 16.3547C16.4226 15.2998 14.9919 14.7071 13.5 14.7071C12.0082 14.7071 10.5774 15.2998 9.52254 16.3547C8.46765 17.4095 7.87501 18.8403 7.87501 20.3321V24.7579H3.37501C3.07665 24.7579 2.7905 24.6394 2.57952 24.4284C2.36854 24.2174 2.25001 23.9312 2.25001 23.6329V12.5888C2.25106 12.2906 2.36948 12.0049 2.57964 11.7934L11.1128 3.2625C11.7469 2.6313 12.6053 2.27694 13.5 2.27694C14.3948 2.27694 15.2531 2.6313 15.8873 3.2625L24.4204 11.7968C24.6297 12.0074 24.7481 12.2918 24.75 12.5888V23.6329Z" fill="#7B7B7B"/>
</g>
<defs>
<clipPath id="clip0_471_585">
<rect width="27" height="27" fill="white"/>
</clipPath>
</defs>
</svg>
